<mxfile host="app.diagrams.net" modified="2023-06-14T09:30:51.814Z" agent="5.0 (Macintosh; Intel Mac OS X 10_15_7) AppleWebKit/537.36 (KHTML, like Gecko) Chrome/114.0.0.0 Safari/537.36" version="20.7.4" etag="6AE7Gv84YvLgmnTzo-Nz" type="github">
  <diagram id="uUyTrEplb1Cj-T35evl2" name="第 1 页">
    <mxGraphModel dx="2261" dy="828" grid="1" gridSize="10" guides="1" tooltips="1" connect="1" arrows="1" fold="1" page="1" pageScale="1" pageWidth="827" pageHeight="1169" math="0" shadow="0">
      <root>
        <mxCell id="0" />
        <mxCell id="1" parent="0" />
        <mxCell id="6fLWPxREOukzEyrBjein-1" value="" style="rounded=0;whiteSpace=wrap;html=1;" vertex="1" parent="1">
          <mxGeometry x="520" y="160" width="430" height="550" as="geometry" />
        </mxCell>
        <mxCell id="6fLWPxREOukzEyrBjein-14" value="&lt;font style=&quot;font-size: 24px;&quot;&gt;next app&lt;/font&gt;" style="text;html=1;strokeColor=none;fillColor=none;align=center;verticalAlign=middle;whiteSpace=wrap;rounded=0;" vertex="1" parent="1">
          <mxGeometry x="590" y="110" width="110" height="40" as="geometry" />
        </mxCell>
        <mxCell id="6fLWPxREOukzEyrBjein-15" value="&lt;font style=&quot;font-size: 18px;&quot;&gt;HTML&lt;/font&gt;" style="rounded=0;whiteSpace=wrap;html=1;fontSize=24;fillColor=#fff2cc;strokeColor=#d6b656;" vertex="1" parent="1">
          <mxGeometry x="550" y="210" width="70" height="40" as="geometry" />
        </mxCell>
        <mxCell id="6fLWPxREOukzEyrBjein-16" value="&lt;font style=&quot;font-size: 18px;&quot;&gt;HTML&lt;/font&gt;" style="rounded=0;whiteSpace=wrap;html=1;fontSize=24;fillColor=#fff2cc;strokeColor=#d6b656;" vertex="1" parent="1">
          <mxGeometry x="690" y="220" width="70" height="40" as="geometry" />
        </mxCell>
        <mxCell id="6fLWPxREOukzEyrBjein-17" value="&lt;span style=&quot;font-size: 18px;&quot;&gt;browser&lt;/span&gt;" style="rounded=0;whiteSpace=wrap;html=1;fontSize=24;fillColor=#d5e8d4;strokeColor=#82b366;" vertex="1" parent="1">
          <mxGeometry x="40" y="180" width="90" height="100" as="geometry" />
        </mxCell>
        <mxCell id="6fLWPxREOukzEyrBjein-19" value="" style="endArrow=classic;html=1;rounded=0;fontSize=18;fontColor=#FFFFFF;entryX=0;entryY=0.09;entryDx=0;entryDy=0;entryPerimeter=0;exitX=1;exitY=0.25;exitDx=0;exitDy=0;" edge="1" parent="1" source="6fLWPxREOukzEyrBjein-17">
          <mxGeometry width="50" height="50" relative="1" as="geometry">
            <mxPoint x="150" y="210" as="sourcePoint" />
            <mxPoint x="520" y="206.0999999999999" as="targetPoint" />
          </mxGeometry>
        </mxCell>
        <mxCell id="6fLWPxREOukzEyrBjein-22" value="&lt;font color=&quot;#171717&quot;&gt;/products&lt;/font&gt;" style="text;html=1;align=center;verticalAlign=middle;resizable=0;points=[];autosize=1;strokeColor=none;fillColor=none;fontSize=18;fontColor=#FFFFFF;" vertex="1" parent="1">
          <mxGeometry x="240" y="170" width="100" height="40" as="geometry" />
        </mxCell>
        <mxCell id="6fLWPxREOukzEyrBjein-23" value="" style="endArrow=classic;html=1;rounded=0;fontSize=18;fontColor=#FFFFFF;exitX=0;exitY=0.5;exitDx=0;exitDy=0;" edge="1" parent="1" source="6fLWPxREOukzEyrBjein-15" target="6fLWPxREOukzEyrBjein-17">
          <mxGeometry width="50" height="50" relative="1" as="geometry">
            <mxPoint x="150" y="373.9" as="sourcePoint" />
            <mxPoint x="-60" y="370" as="targetPoint" />
          </mxGeometry>
        </mxCell>
        <mxCell id="6fLWPxREOukzEyrBjein-25" value="&lt;span style=&quot;font-size: 18px;&quot;&gt;browser&lt;/span&gt;" style="rounded=0;whiteSpace=wrap;html=1;fontSize=24;fillColor=#d5e8d4;strokeColor=#82b366;" vertex="1" parent="1">
          <mxGeometry x="40" y="300" width="90" height="100" as="geometry" />
        </mxCell>
        <mxCell id="6fLWPxREOukzEyrBjein-27" value="&lt;font color=&quot;#171717&quot;&gt;/products (within 30 seconds)&lt;/font&gt;" style="text;html=1;align=center;verticalAlign=middle;resizable=0;points=[];autosize=1;strokeColor=none;fillColor=none;fontSize=18;fontColor=#FFFFFF;" vertex="1" parent="1">
          <mxGeometry x="160" y="290" width="260" height="40" as="geometry" />
        </mxCell>
        <mxCell id="6fLWPxREOukzEyrBjein-29" value="" style="edgeStyle=elbowEdgeStyle;elbow=horizontal;endArrow=classic;html=1;curved=0;rounded=0;endSize=8;startSize=8;fontSize=18;fontColor=#171717;entryX=1.033;entryY=0.66;entryDx=0;entryDy=0;entryPerimeter=0;exitX=0.5;exitY=1;exitDx=0;exitDy=0;" edge="1" parent="1" source="6fLWPxREOukzEyrBjein-15" target="6fLWPxREOukzEyrBjein-25">
          <mxGeometry width="50" height="50" relative="1" as="geometry">
            <mxPoint x="200" y="520" as="sourcePoint" />
            <mxPoint x="520" y="520" as="targetPoint" />
            <Array as="points">
              <mxPoint x="585" y="310" />
              <mxPoint x="585" y="300" />
            </Array>
          </mxGeometry>
        </mxCell>
        <mxCell id="6fLWPxREOukzEyrBjein-30" value="" style="endArrow=classic;html=1;rounded=0;fontSize=18;fontColor=#FFFFFF;entryX=0;entryY=0.09;entryDx=0;entryDy=0;entryPerimeter=0;exitX=1;exitY=0.25;exitDx=0;exitDy=0;" edge="1" parent="1">
          <mxGeometry width="50" height="50" relative="1" as="geometry">
            <mxPoint x="130" y="330" as="sourcePoint" />
            <mxPoint x="520" y="331.0999999999999" as="targetPoint" />
          </mxGeometry>
        </mxCell>
        <mxCell id="6fLWPxREOukzEyrBjein-31" value="&lt;font color=&quot;#171717&quot;&gt;stale page&lt;/font&gt;" style="text;html=1;align=center;verticalAlign=middle;resizable=0;points=[];autosize=1;strokeColor=none;fillColor=none;fontSize=18;fontColor=#FFFFFF;" vertex="1" parent="1">
          <mxGeometry x="414" y="500" width="110" height="40" as="geometry" />
        </mxCell>
        <mxCell id="6fLWPxREOukzEyrBjein-32" value="&lt;span style=&quot;font-size: 18px;&quot;&gt;browser&lt;/span&gt;" style="rounded=0;whiteSpace=wrap;html=1;fontSize=24;fillColor=#d5e8d4;strokeColor=#82b366;" vertex="1" parent="1">
          <mxGeometry x="40" y="460" width="90" height="100" as="geometry" />
        </mxCell>
        <mxCell id="6fLWPxREOukzEyrBjein-33" value="&lt;font color=&quot;#171717&quot;&gt;/products (after 30 seconds)&lt;/font&gt;" style="text;html=1;align=center;verticalAlign=middle;resizable=0;points=[];autosize=1;strokeColor=none;fillColor=none;fontSize=18;fontColor=#FFFFFF;" vertex="1" parent="1">
          <mxGeometry x="170" y="450" width="250" height="40" as="geometry" />
        </mxCell>
        <mxCell id="6fLWPxREOukzEyrBjein-34" value="" style="endArrow=classic;html=1;rounded=0;fontSize=18;fontColor=#FFFFFF;entryX=0;entryY=0.09;entryDx=0;entryDy=0;entryPerimeter=0;exitX=1;exitY=0.25;exitDx=0;exitDy=0;" edge="1" parent="1">
          <mxGeometry width="50" height="50" relative="1" as="geometry">
            <mxPoint x="130" y="500" as="sourcePoint" />
            <mxPoint x="520" y="501.0999999999999" as="targetPoint" />
          </mxGeometry>
        </mxCell>
        <mxCell id="6fLWPxREOukzEyrBjein-35" value="&lt;span style=&quot;font-size: 18px;&quot;&gt;regeneration page&lt;/span&gt;" style="rounded=0;whiteSpace=wrap;html=1;fontSize=24;fillColor=#dae8fc;strokeColor=#6c8ebf;" vertex="1" parent="1">
          <mxGeometry x="770" y="335" width="170" height="80" as="geometry" />
        </mxCell>
        <mxCell id="6fLWPxREOukzEyrBjein-37" value="" style="edgeStyle=elbowEdgeStyle;elbow=horizontal;endArrow=classic;html=1;curved=0;rounded=0;endSize=8;startSize=8;fontSize=18;fontColor=#171717;entryX=0.5;entryY=1;entryDx=0;entryDy=0;strokeColor=#3399FF;" edge="1" parent="1" target="6fLWPxREOukzEyrBjein-35">
          <mxGeometry width="50" height="50" relative="1" as="geometry">
            <mxPoint x="520" y="500" as="sourcePoint" />
            <mxPoint x="142.97000000000003" y="376" as="targetPoint" />
            <Array as="points">
              <mxPoint x="855" y="460" />
              <mxPoint x="595" y="310" />
            </Array>
          </mxGeometry>
        </mxCell>
        <mxCell id="6fLWPxREOukzEyrBjein-38" value="" style="edgeStyle=elbowEdgeStyle;elbow=horizontal;endArrow=classic;html=1;curved=0;rounded=0;endSize=8;startSize=8;fontSize=18;fontColor=#171717;entryX=1.033;entryY=0.66;entryDx=0;entryDy=0;entryPerimeter=0;" edge="1" parent="1">
          <mxGeometry width="50" height="50" relative="1" as="geometry">
            <mxPoint x="610" y="250" as="sourcePoint" />
            <mxPoint x="130.00000000000003" y="531" as="targetPoint" />
            <Array as="points">
              <mxPoint x="610" y="390" />
              <mxPoint x="582.03" y="465" />
            </Array>
          </mxGeometry>
        </mxCell>
        <mxCell id="6fLWPxREOukzEyrBjein-39" value="&lt;span style=&quot;font-size: 24px;&quot;&gt;ISR&amp;nbsp;&lt;/span&gt;" style="text;html=1;strokeColor=none;fillColor=none;align=center;verticalAlign=middle;whiteSpace=wrap;rounded=0;" vertex="1" parent="1">
          <mxGeometry x="40" y="40" width="50" height="40" as="geometry" />
        </mxCell>
        <mxCell id="6fLWPxREOukzEyrBjein-40" value="&lt;span style=&quot;font-size: 24px;&quot;&gt;revalidate: 30S&lt;/span&gt;" style="text;html=1;strokeColor=none;fillColor=none;align=center;verticalAlign=middle;whiteSpace=wrap;rounded=0;" vertex="1" parent="1">
          <mxGeometry x="20" y="80" width="200" height="60" as="geometry" />
        </mxCell>
        <mxCell id="6fLWPxREOukzEyrBjein-41" value="&lt;span style=&quot;font-size: 18px;&quot;&gt;browser&lt;/span&gt;" style="rounded=0;whiteSpace=wrap;html=1;fontSize=24;fillColor=#d5e8d4;strokeColor=#82b366;" vertex="1" parent="1">
          <mxGeometry x="40" y="585" width="90" height="100" as="geometry" />
        </mxCell>
        <mxCell id="6fLWPxREOukzEyrBjein-42" value="" style="endArrow=classic;html=1;rounded=0;fontSize=18;fontColor=#FFFFFF;entryX=0;entryY=0.09;entryDx=0;entryDy=0;entryPerimeter=0;exitX=1;exitY=0.25;exitDx=0;exitDy=0;" edge="1" parent="1">
          <mxGeometry width="50" height="50" relative="1" as="geometry">
            <mxPoint x="130" y="634.45" as="sourcePoint" />
            <mxPoint x="520" y="635.55" as="targetPoint" />
          </mxGeometry>
        </mxCell>
        <mxCell id="6fLWPxREOukzEyrBjein-43" value="" style="edgeStyle=elbowEdgeStyle;elbow=horizontal;endArrow=classic;html=1;curved=0;rounded=0;endSize=8;startSize=8;fontSize=18;fontColor=#171717;entryX=1;entryY=0.5;entryDx=0;entryDy=0;strokeColor=#3399FF;exitX=0.5;exitY=0;exitDx=0;exitDy=0;" edge="1" parent="1" source="6fLWPxREOukzEyrBjein-35" target="6fLWPxREOukzEyrBjein-16">
          <mxGeometry width="50" height="50" relative="1" as="geometry">
            <mxPoint x="780" y="552.5" as="sourcePoint" />
            <mxPoint x="1115" y="467.5" as="targetPoint" />
            <Array as="points">
              <mxPoint x="850" y="290" />
              <mxPoint x="855" y="362.5" />
            </Array>
          </mxGeometry>
        </mxCell>
        <mxCell id="6fLWPxREOukzEyrBjein-44" value="&lt;font color=&quot;#171717&quot;&gt;/products (after 30 seconds)&lt;/font&gt;" style="text;html=1;align=center;verticalAlign=middle;resizable=0;points=[];autosize=1;strokeColor=none;fillColor=none;fontSize=18;fontColor=#FFFFFF;" vertex="1" parent="1">
          <mxGeometry x="190" y="585" width="250" height="40" as="geometry" />
        </mxCell>
        <mxCell id="6fLWPxREOukzEyrBjein-45" value="" style="edgeStyle=elbowEdgeStyle;elbow=horizontal;endArrow=classic;html=1;curved=0;rounded=0;endSize=8;startSize=8;fontSize=18;fontColor=#171717;entryX=1.033;entryY=0.66;entryDx=0;entryDy=0;entryPerimeter=0;exitX=0.5;exitY=1;exitDx=0;exitDy=0;" edge="1" parent="1" source="6fLWPxREOukzEyrBjein-16">
          <mxGeometry width="50" height="50" relative="1" as="geometry">
            <mxPoint x="610" y="390" as="sourcePoint" />
            <mxPoint x="130" y="671" as="targetPoint" />
            <Array as="points">
              <mxPoint x="725" y="470" />
              <mxPoint x="582.03" y="605" />
            </Array>
          </mxGeometry>
        </mxCell>
        <mxCell id="6fLWPxREOukzEyrBjein-46" value="&lt;span style=&quot;font-size: 24px;&quot;&gt;A&lt;/span&gt;" style="text;html=1;strokeColor=none;fillColor=none;align=center;verticalAlign=middle;whiteSpace=wrap;rounded=0;" vertex="1" parent="1">
          <mxGeometry x="-60" y="210" width="110" height="40" as="geometry" />
        </mxCell>
        <mxCell id="6fLWPxREOukzEyrBjein-49" value="&lt;span style=&quot;font-size: 24px;&quot;&gt;B&lt;/span&gt;" style="text;html=1;strokeColor=none;fillColor=none;align=center;verticalAlign=middle;whiteSpace=wrap;rounded=0;" vertex="1" parent="1">
          <mxGeometry x="-60" y="330" width="110" height="40" as="geometry" />
        </mxCell>
        <mxCell id="6fLWPxREOukzEyrBjein-50" value="&lt;span style=&quot;font-size: 24px;&quot;&gt;C&lt;/span&gt;" style="text;html=1;strokeColor=none;fillColor=none;align=center;verticalAlign=middle;whiteSpace=wrap;rounded=0;" vertex="1" parent="1">
          <mxGeometry x="-60" y="490" width="110" height="40" as="geometry" />
        </mxCell>
        <mxCell id="6fLWPxREOukzEyrBjein-51" value="&lt;span style=&quot;color: rgb(0, 0, 0); font-family: Helvetica; font-size: 24px; font-style: normal; font-variant-ligatures: normal; font-variant-caps: normal; font-weight: 400; letter-spacing: normal; orphans: 2; text-align: center; text-indent: 0px; text-transform: none; widows: 2; word-spacing: 0px; -webkit-text-stroke-width: 0px; background-color: rgb(251, 251, 251); text-decoration-thickness: initial; text-decoration-style: initial; text-decoration-color: initial; float: none; display: inline !important;&quot;&gt;D&lt;/span&gt;" style="text;whiteSpace=wrap;html=1;fontSize=18;fontColor=#171717;" vertex="1" parent="1">
          <mxGeometry x="-10" y="620" width="50" height="50" as="geometry" />
        </mxCell>
      </root>
    </mxGraphModel>
  </diagram>
</mxfile>
